# xmcd
#
# Track frame offsets:
# 150
# 19069
# 33354
# 57119
# 75429
# 94970
# 111269
# 129985
# 140367
# 163783
# 183434
# 212151
# 234485
# 253680
# 284503
# 303755
#
# Disc length: 4367 seconds
#
#
# Revision: 4
# Processed by: cddbd v1.5.1PL2 Copyright (c) Steve Scherf et al.
# Submitted via: FreeRIP 2.945 
#
DISCID=d7110d10
DTITLE=Los Prisioneros - Antologia CD2
DYEAR=2001
DGENRE=Blues
TTITLE0=La Voz de los '80
TTITLE1=De la Cultura de la Basura
TTITLE2=Quieren Dinero
TTITLE3=Amiga Mia
TTITLE4=Mentalidad Televisiva
TTITLE5=we are Sudamerican Rockers
TTITLE6=Muevan las Industrias
TTITLE7=Maldito Sudaca
TTITLE8=No Necesitamos Banderas
TTITLE9=Estar Solo
TTITLE10=Estrechez de Corazon
TTITLE11=POr Que los Ricos
TTITLE12=Nunca Quedas Mal Con Nadie
TTITLE13=Quieren Dinero (Remix)
TTITLE14=Muevan Las Industrias (Remix)
TTITLE15=Estrechez de Corazon (Radio Edit)
EXTD=Su Historia y Sus Exitos\n2001 EMI YEAR: 2001 ID3G:   0
EXTT0=
EXTT1=
EXTT2=
EXTT3=
EXTT4=
EXTT5=
EXTT6=tt
EXTT7=
EXTT8=
EXTT9=
EXTT10=
EXTT11=
EXTT12=
EXTT13=
EXTT14=
EXTT15=
PLAYORDER=
